<?xml version="1.0" standalone="no"?><!DOCTYPE svg PUBLIC "-//W3C//DTD SVG 1.1//EN" "http://www.w3.org/Graphics/SVG/1.1/DTD/svg11.dtd"><svg t="1584280124692" class="icon" viewBox="0 0 1024 1024" version="1.1" xmlns="http://www.w3.org/2000/svg" p-id="47069" xmlns:xlink="http://www.w3.org/1999/xlink" width="200" height="200"><defs><style type="text/css"></style></defs><path d="M152.048 366.665c6.35 19.455 15.707 37.716 27.824 54.307l18.487-13.499a173.326 173.326 0 0 0 38.118 38.004l-13.448 18.524a193.854 193.854 0 0 0 54.385 27.672l7.043-21.404c16.711 5.405 34.519 8.731 53.021 8.731h0.168l0.022 22.485c20.574-0.031 40.837-3.422 60.225-9.741l-7.083-21.868c17.354-5.646 33.491-14.014 47.936-24.543l13.477 18.476a195.853 195.853 0 0 0 43.091-43.123l-18.526-13.474a171.65 171.65 0 0 0 24.716-48.708l21.765 7.813c6.296-19.41 9.731-39.683 9.731-60.256V293h-23.916c-1.08-14-3.823-27.708-8.057-40.565l21.762-7.252a194.54 194.54 0 0 0-27.93-54.285l-18.456 13.513a173.078 173.078 0 0 0-38.208-37.94l13.417-18.57a194.088 194.088 0 0 0-54.443-27.561l-7 21.798a171.94 171.94 0 0 0-52.69-8.255c-0.173 0-0.339 0.016-0.513 0.016l-0.068-22.872c-20.565 0.067-40.823 3.317-60.21 9.666l7.136 21.761a171.729 171.729 0 0 0-47.89 24.595l-13.523-18.473a195.927 195.927 0 0 0-42.993 43.204l18.549 13.439c-10.559 14.58-18.896 30.869-24.497 48.389l-23.38-7.407c-6.22 19.28-11.09 39.423-11.09 59.862v0.348l26.433-0.197c0.015 18.624 2.961 36.552 8.447 53.347l-21.832 7.104z" fill="#F39919" p-id="47070"></path><path d="M337.479 203.941c56.402 0 102.128 45.72 102.128 102.121 0 56.407-45.727 102.128-102.128 102.128-56.4 0-102.127-45.721-102.127-102.128 0-56.401 45.727-102.121 102.127-102.121z" fill="#FFFFFF" p-id="47071"></path><path d="M484.339 906.428l-5.728-17.596c13.989-4.55 26.944-11.322 38.592-19.803l10.937 15.011a157.838 157.838 0 0 0 34.738-34.77l-15.025-10.929c8.624-11.852 15.495-25.063 20.046-39.349l19.889 6.456C592.865 789.803 598 773.461 598 756.871V754h-23.692c-0.289-14-2.654-27.736-6.871-40.54l17.597-5.766a156.6 156.6 0 0 0-22.517-43.731l-14.988 10.993a139.49 139.49 0 0 0-30.764-30.563l10.876-15.049a156.624 156.624 0 0 0-43.891-22.222l-5.653 17.604c-13.394-4.3-27.648-6.681-42.478-6.681-0.137 0-0.272 0.022-0.408 0.022l-0.061-18.45a157.49 157.49 0 0 0-48.541 7.784l5.767 17.604c-13.981 4.589-26.921 11.367-38.555 19.88l-10.976-14.997a157.588 157.588 0 0 0-34.663 34.837l15.042 10.892c-8.405 11.602-15.109 24.513-19.622 38.435l-16.861-5.457C281.729 724.15 280 740.393 280 756.871v0.279l16.643-0.129c0.015 15.01 2.562 29.425 6.983 42.97l-17.554 5.744c5.124 15.675 12.688 30.406 22.454 43.778l15.014-10.952a139.26 139.26 0 0 0 30.707 30.617l-10.904 15.034a156.415 156.415 0 0 0 43.855 22.313l5.685-18.951c13.478 4.363 27.816 5.426 42.736 5.426h0.143l0.015 19.783c16.583-0.015 32.925-1.261 48.562-6.355z" fill="#3AA2A2" p-id="47072"></path><path d="M353.278 756.871c0-45.479 36.871-82.342 82.341-82.342 45.486 0 82.348 36.862 82.348 82.342 0 45.479-36.861 82.347-82.348 82.347-45.471 0-82.341-36.868-82.341-82.347z" fill="#FFFFFF" p-id="47073"></path><path d="M741.757 302.173l-6.81-9.296a97.836 97.836 0 0 0-21.497 21.609l9.329 6.749c-5.126 7.083-9.216 14.936-12.013 23.401l-8.603-2.948c-3.107 9.652-2.164 19.72-2.164 29.939v0.181l6.419-0.059a86.104 86.104 0 0 0 4.265 26.619l-10.913 3.568a97.14 97.14 0 0 0 13.902 27.15l9.305-6.795a86.322 86.322 0 0 0 19.045 18.993l-6.766 9.328a96.974 96.974 0 0 0 27.195 13.831l3.529-11.781c8.354 2.706 17.248 3.337 26.499 3.337h0.092l0.008 12.294c10.286-0.008 20.422-1.184 30.12-4.343l-3.553-10.697c8.676-2.828 16.711-6.916 23.938-12.176l6.78 9.372a97.575 97.575 0 0 0 21.547-21.539l-9.318-6.763c5.193-7.151 9.342-15.086 12.154-23.658l8.51 3.264c3.15-9.704 2.242-19.839 2.242-30.126V371h-6.451a86.568 86.568 0 0 0-4.316-26.277l10.915-3.592a96.904 96.904 0 0 0-13.968-27.117l-9.29 6.82a86.294 86.294 0 0 0-19.076-18.956l6.741-9.342a96.957 96.957 0 0 0-27.218-13.771l-3.506 10.914a85.794 85.794 0 0 0-26.351-4.141c-0.083 0-0.165 0.007-0.248 0.007l-0.039-11.436a97.296 97.296 0 0 0-30.104 4.822l3.575 10.915c-8.668 2.842-16.695 7.051-23.906 12.327z" fill="#9FADC3" p-id="47074"></path><path d="M843.553 371.628c0 28.208-22.863 51.072-51.072 51.072-28.198 0-51.063-22.865-51.063-51.072 0-28.201 22.865-51.064 51.063-51.064 28.208-0.001 51.072 22.863 51.072 51.064z" fill="#FFFFFF" p-id="47075"></path></svg>