<?xml version="1.0" standalone="no"?><!DOCTYPE svg PUBLIC "-//W3C//DTD SVG 1.1//EN" "http://www.w3.org/Graphics/SVG/1.1/DTD/svg11.dtd"><svg t="1584283405576" class="icon" viewBox="0 0 1024 1024" version="1.1" xmlns="http://www.w3.org/2000/svg" p-id="48513" xmlns:xlink="http://www.w3.org/1999/xlink" width="200" height="200"><defs><style type="text/css"></style></defs><path d="M612.9 457.4m-332 0a332 332 0 1 0 664 0 332 332 0 1 0-664 0Z" fill="#FFE4CC" p-id="48514"></path><path d="M644.9 281.2h-198c-14.2 0-25.8-11.6-25.8-25.8v-75.7c0-14.2 11.6-25.8 25.8-25.8H645c14.2 0 25.8 11.6 25.8 25.8v75.7c-0.1 14.2-11.7 25.8-25.9 25.8z" fill="#F88E20" p-id="48515"></path><path d="M644.9 294.1h-198c-21.3 0-38.7-17.3-38.7-38.7v-75.7c0-21.3 17.3-38.7 38.7-38.7H645c21.3 0 38.7 17.3 38.7 38.7v75.7c-0.1 21.4-17.5 38.7-38.8 38.7z m-198-127.2c-7.1 0-12.9 5.8-12.9 12.9v75.7c0 7.1 5.8 12.9 12.9 12.9H645c7.1 0 12.9-5.8 12.9-12.9v-75.7c0-7.1-5.8-12.9-12.9-12.9H446.9z" fill="#441B00" p-id="48516"></path><path d="M747 463.9m-130 0a130 130 0 1 0 260 0 130 130 0 1 0-260 0Z" fill="#F88E20" p-id="48517"></path><path d="M747 606.7c-78.8 0-142.8-64.1-142.8-142.8 0-78.8 64.1-142.8 142.8-142.8s142.8 64.1 142.8 142.8c0 78.7-64.1 142.8-142.8 142.8z m0-259.9c-64.6 0-117.1 52.5-117.1 117.1S682.4 581 747 581s117.1-52.5 117.1-117.1S811.5 346.8 747 346.8z" fill="#441B00" p-id="48518"></path><path d="M715.7 324.9h106.5v273.8H715.7z" fill="#F88E20" p-id="48519"></path><path d="M822.2 611.6H715.7c-7.1 0-12.9-5.8-12.9-12.9V324.9c0-7.1 5.8-12.9 12.9-12.9h106.5c7.1 0 12.9 5.8 12.9 12.9v273.8c-0.1 7.1-5.8 12.9-12.9 12.9z m-93.6-25.8h80.7v-248h-80.7v248z" fill="#441B00" p-id="48520"></path><path d="M712 667.2H297.9c-113 0-205.4-92.4-205.4-205.4s92.4-205.4 205.4-205.4H712c25.1 0 45.7 20.6 45.7 45.7v319.3c0 25.2-20.6 45.8-45.7 45.8z" fill="#FFFFFF" p-id="48521"></path><path d="M712 680.1H297.9c-58.1 0-112.8-22.8-154.2-64.1-41.3-41.3-64.1-96.1-64.1-154.2s22.8-112.8 64.1-154.2c41.3-41.3 96.1-64.1 154.2-64.1H712c32.3 0 58.6 26.3 58.6 58.6v319.3c0 32.4-26.3 58.7-58.6 58.7zM297.9 269.3c-106.1 0-192.5 86.3-192.5 192.5 0 106.1 86.3 192.5 192.5 192.5H712c18.1 0 32.8-14.7 32.8-32.8V302.1c0-18.1-14.7-32.8-32.8-32.8H297.9z" fill="#441B00" p-id="48522"></path><path d="M309.8 667.2h357.7v112.2H309.8z" fill="#FFFFFF" p-id="48523"></path><path d="M667.5 792.3H309.8c-7.1 0-12.9-5.8-12.9-12.9V667.2c0-7.1 5.8-12.9 12.9-12.9h357.7c7.1 0 12.9 5.8 12.9 12.9v112.2c0 7.1-5.7 12.9-12.9 12.9z m-344.8-25.8h331.9V680H322.7v86.5z" fill="#441B00" p-id="48524"></path><path d="M759.1 875.2H218.3c-25.9 0-47.1-21.2-47.1-47.1 0-25.9 21.2-47.1 47.1-47.1h540.8c25.9 0 47.1 21.2 47.1 47.1 0 25.9-21.2 47.1-47.1 47.1z" fill="#F88E20" p-id="48525"></path><path d="M759.1 888.1H218.3c-33.1 0-60-26.9-60-60s26.9-60 60-60h540.8c33.1 0 60 26.9 60 60s-27 60-60 60z m-540.8-94.2c-18.9 0-34.2 15.3-34.2 34.2s15.3 34.2 34.2 34.2h540.8c18.9 0 34.2-15.3 34.2-34.2s-15.3-34.2-34.2-34.2H218.3z" fill="#441B00" p-id="48526"></path><path d="M600.4 222.1h-109c-7.1 0-12.9-5.8-12.9-12.9s5.8-12.9 12.9-12.9h109c7.1 0 12.9 5.8 12.9 12.9s-5.8 12.9-12.9 12.9z" fill="#FFFFFF" p-id="48527"></path><path d="M226 366h441.5" fill="#FFFFFF" p-id="48528"></path><path d="M667.5 378.9H226c-7.1 0-12.9-5.8-12.9-12.9s5.8-12.9 12.9-12.9h441.5c7.1 0 12.9 5.8 12.9 12.9s-5.7 12.9-12.9 12.9z" fill="#441B00" p-id="48529"></path><path d="M226 465.8h441.5" fill="#FFFFFF" p-id="48530"></path><path d="M667.5 478.6H226c-7.1 0-12.9-5.8-12.9-12.9s5.8-12.9 12.9-12.9h441.5c7.1 0 12.9 5.8 12.9 12.9s-5.7 12.9-12.9 12.9z" fill="#441B00" p-id="48531"></path><path d="M226 565.5h441.5" fill="#FFFFFF" p-id="48532"></path><path d="M667.5 578.4H226c-7.1 0-12.9-5.8-12.9-12.9s5.8-12.9 12.9-12.9h441.5c7.1 0 12.9 5.8 12.9 12.9s-5.7 12.9-12.9 12.9z" fill="#441B00" p-id="48533"></path></svg>