<?xml version="1.0" standalone="no"?><!DOCTYPE svg PUBLIC "-//W3C//DTD SVG 1.1//EN" "http://www.w3.org/Graphics/SVG/1.1/DTD/svg11.dtd"><svg t="1584280059803" class="icon" viewBox="0 0 1024 1024" version="1.1" xmlns="http://www.w3.org/2000/svg" p-id="45918" xmlns:xlink="http://www.w3.org/1999/xlink" width="200" height="200"><defs><style type="text/css"></style></defs><path d="M635.4 493.5m-318.9 0a318.9 318.9 0 1 0 637.8 0 318.9 318.9 0 1 0-637.8 0Z" fill="#FFE4CC" p-id="45919"></path><path d="M906.8 537c0-226.8-183.9-410.6-410.6-410.6S85.5 310.2 85.5 537c0 135.7 68.1 252.9 167.2 330.8 0.2 0.2 3.3 2.7 3.5 2.8 12.9 8.4 23.1 12.7 41.3 12.1 34.7-1.2 62.9-28.2 62.9-62.9 0-23.7-13.1-44.3-32.4-55-69.8-51.6-115-134.4-115-227.8 0-156.4 126.8-283.2 283.2-283.2S779.3 380.7 779.3 537c0 95.5-47.3 180-119.7 231.3l0.2 0.2c-14.3 11.2-24.3 29.5-24.3 51.2 0 34.7 28.2 62.9 62.9 62.9 16.4 0 32.4-6 44.2-17.1 99.7-74.9 164.2-194.1 164.2-328.5z" fill="#F88E20" p-id="45920"></path><path d="M294.1 895.1c-19 0-30.9-5.2-44.5-14.1-0.7-0.4-1.1-0.8-4.1-3.1l-0.5-0.4c-51.8-40.6-94.7-91.7-124-147.6C89.2 669.4 73.1 604.5 73.1 537c0-57.1 11.2-112.5 33.2-164.7 21.3-50.4 51.8-95.6 90.7-134.5 38.8-38.8 84.1-69.3 134.5-90.7C383.6 125.2 439 114 496.1 114c57.1 0 112.5 11.2 164.7 33.2 50.4 21.3 95.6 51.8 134.5 90.7 38.8 38.8 69.3 84.1 90.7 134.5 22.1 52.2 33.2 107.6 33.2 164.7 0 67.7-15.5 132.3-46.1 192.2-29.1 56.9-71.4 107.3-122.6 145.8-13.8 12.7-32.8 20-52.2 20-41.5 0-75.3-33.8-75.3-75.3 0-23.2 9.7-44.6 26.8-59.2 0.7-0.9 1.6-1.7 2.5-2.4C724 707.4 766.8 624.8 766.8 537c0-149.3-121.5-270.8-270.8-270.8S225.2 387.7 225.2 537c0 85.2 40.9 166.3 109.4 217.3 23.5 13.4 38.1 38.4 38.1 65.4 0 40.8-32.9 73.8-74.9 75.3-1.2 0.1-2.5 0.1-3.7 0.1z m-30.8-34.6c11.2 7.2 18.8 10.4 33.7 9.8 28.6-1 51-23.2 51-50.5 0-18.3-10-35.3-26.1-44.2-0.5-0.3-0.9-0.6-1.4-0.9-36.4-26.9-66.6-62.4-87.3-102.5-21.7-42.1-32.7-87.6-32.7-135.2 0-78.9 30.7-153.2 86.6-209 55.8-55.8 130-86.6 209-86.6s153.2 30.7 209 86.6c55.8 55.8 86.6 130 86.6 209 0 48.1-11.8 95.8-34.1 138-21.2 40.1-51.8 75.2-88.7 101.8-0.5 0.5-0.9 1-1.5 1.4-12.5 9.8-19.6 25-19.6 41.5 0 27.9 22.7 50.5 50.5 50.5 13.4 0 26.5-5 35.7-13.8 0.3-0.3 0.7-0.6 1.1-0.9 101.2-76 159.3-192.2 159.3-318.6 0-219.6-178.7-398.3-398.3-398.3S97.8 317.4 97.8 537c0 122.9 59.2 239.9 162.5 321 0.1 0.1 0.3 0.3 0.7 0.6 0.7 0.6 1.8 1.4 2.3 1.9z m-0.6-0.4c0.1 0 0.2 0.1 0.2 0.1 0.1 0 0.1 0.1 0.2 0.1-0.1-0.1-0.3-0.2-0.4-0.2z" fill="#441B00" p-id="45921"></path><path d="M906.8 537c0-226.8-183.9-410.6-410.6-410.6S85.5 310.2 85.5 537c0 135.7 68.1 252.9 167.2 330.8 0.2 0.2 3.3 2.7 3.5 2.8 12.9 8.4 23.1 12.7 41.3 12.1 34.7-1.2 62.9-28.2 62.9-62.9 0-23.7-13.1-44.3-32.4-55-69.8-51.6-115-134.4-115-227.8 0-156.4 126.8-283.2 283.2-283.2S779.3 380.7 779.3 537c0 95.5-47.3 180-119.7 231.3l0.2 0.2c-14.3 11.2-24.3 29.5-24.3 51.2 0 34.7 28.2 62.9 62.9 62.9 16.4 0 32.4-6 44.2-17.1 99.7-74.9 164.2-194.1 164.2-328.5z" fill="#F88E20" p-id="45922"></path><path d="M294.1 895.1c-19 0-30.9-5.2-44.5-14.1-0.7-0.4-1.1-0.8-4.1-3.1l-0.5-0.4c-51.8-40.6-94.7-91.7-124-147.6C89.2 669.4 73.1 604.5 73.1 537c0-57.1 11.2-112.5 33.2-164.7 21.3-50.4 51.8-95.6 90.7-134.5 38.8-38.8 84.1-69.3 134.5-90.7C383.6 125.2 439 114 496.1 114c57.1 0 112.5 11.2 164.7 33.2 50.4 21.3 95.6 51.8 134.5 90.7 38.8 38.8 69.3 84.1 90.7 134.5 22.1 52.2 33.2 107.6 33.2 164.7 0 67.7-15.5 132.3-46.1 192.2-29.1 56.9-71.4 107.3-122.6 145.8-13.8 12.7-32.8 20-52.2 20-41.5 0-75.3-33.8-75.3-75.3 0-23.2 9.7-44.6 26.8-59.2 0.7-0.9 1.6-1.7 2.5-2.4C724 707.4 766.8 624.8 766.8 537c0-149.3-121.5-270.8-270.8-270.8S225.2 387.7 225.2 537c0 85.2 40.9 166.3 109.4 217.3 23.5 13.4 38.1 38.4 38.1 65.4 0 40.8-32.9 73.8-74.9 75.3-1.2 0.1-2.5 0.1-3.7 0.1z m-30.8-34.6c11.2 7.2 18.8 10.4 33.7 9.8 28.6-1 51-23.2 51-50.5 0-18.3-10-35.3-26.1-44.2-0.5-0.3-0.9-0.6-1.4-0.9-36.4-26.9-66.6-62.4-87.3-102.5-21.7-42.1-32.7-87.6-32.7-135.2 0-78.9 30.7-153.2 86.6-209 55.8-55.8 130-86.6 209-86.6s153.2 30.7 209 86.6c55.8 55.8 86.6 130 86.6 209 0 48.1-11.8 95.8-34.1 138-21.2 40.1-51.8 75.2-88.7 101.8-0.5 0.5-0.9 1-1.5 1.4-12.5 9.8-19.6 25-19.6 41.5 0 27.9 22.7 50.5 50.5 50.5 13.4 0 26.5-5 35.7-13.8 0.3-0.3 0.7-0.6 1.1-0.9 101.2-76 159.3-192.2 159.3-318.6 0-219.6-178.7-398.3-398.3-398.3S97.8 317.4 97.8 537c0 122.9 59.2 239.9 162.5 321 0.1 0.1 0.3 0.3 0.7 0.6 0.7 0.6 1.8 1.4 2.3 1.9z m-0.6-0.4c0.1 0 0.2 0.1 0.2 0.1 0.1 0 0.1 0.1 0.2 0.1-0.1-0.1-0.3-0.2-0.4-0.2zM496.1 126.4v55.2" fill="#441B00" p-id="45923"></path><path d="M496.1 194c-6.8 0-12.4-5.5-12.4-12.4v-55.2c0-6.8 5.5-12.4 12.4-12.4s12.4 5.5 12.4 12.4v55.2c0 6.8-5.6 12.4-12.4 12.4z" fill="#FFFFFF" p-id="45924"></path><path d="M85.5 537h56.2" fill="#441B00" p-id="45925"></path><path d="M141.7 549.4H85.5c-6.8 0-12.4-5.5-12.4-12.4s5.5-12.4 12.4-12.4h56.2c6.8 0 12.4 5.5 12.4 12.4s-5.6 12.4-12.4 12.4z" fill="#FFFFFF" p-id="45926"></path><path d="M850.5 537h56.3" fill="#441B00" p-id="45927"></path><path d="M906.8 549.4h-56.2c-6.8 0-12.4-5.5-12.4-12.4s5.5-12.4 12.4-12.4h56.2c6.8 0 12.4 5.5 12.4 12.4s-5.6 12.4-12.4 12.4z" fill="#FFFFFF" p-id="45928"></path><path d="M294.1 895.1c-19 0-30.9-5.2-44.5-14.1-0.7-0.4-1.1-0.8-4.1-3.1l-0.5-0.4c-51.8-40.6-94.7-91.7-124-147.6C89.2 669.4 73.1 604.5 73.1 537c0-57.1 11.2-112.5 33.2-164.7 21.3-50.4 51.8-95.6 90.7-134.5 38.8-38.8 84.1-69.3 134.5-90.7C383.6 125.2 439 114 496.1 114c57.1 0 112.5 11.2 164.7 33.2 50.4 21.3 95.6 51.8 134.5 90.7 38.8 38.8 69.3 84.1 90.7 134.5 22.1 52.2 33.2 107.6 33.2 164.7 0 67.7-15.5 132.3-46.1 192.2-29.1 56.9-71.4 107.3-122.6 145.8-13.8 12.7-32.8 20-52.2 20-41.5 0-75.3-33.8-75.3-75.3 0-23.2 9.7-44.6 26.8-59.2 0.7-0.9 1.6-1.7 2.5-2.4C724 707.4 766.8 624.8 766.8 537c0-149.3-121.5-270.8-270.8-270.8S225.2 387.7 225.2 537c0 85.2 40.9 166.3 109.4 217.3 23.5 13.4 38.1 38.4 38.1 65.4 0 40.8-32.9 73.8-74.9 75.3-1.2 0.1-2.5 0.1-3.7 0.1z m-30.8-34.6c11.2 7.2 18.8 10.4 33.7 9.8 28.6-1 51-23.2 51-50.5 0-18.3-10-35.3-26.1-44.2-0.5-0.3-0.9-0.6-1.4-0.9-36.4-26.9-66.6-62.4-87.3-102.5-21.7-42.1-32.7-87.6-32.7-135.2 0-78.9 30.7-153.2 86.6-209 55.8-55.8 130-86.6 209-86.6s153.2 30.7 209 86.6c55.8 55.8 86.6 130 86.6 209 0 48.1-11.8 95.8-34.1 138-21.2 40.1-51.8 75.2-88.7 101.8-0.5 0.5-0.9 1-1.5 1.4-12.5 9.8-19.6 25-19.6 41.5 0 27.9 22.7 50.5 50.5 50.5 13.4 0 26.5-5 35.7-13.8 0.3-0.3 0.7-0.6 1.1-0.9 101.2-76 159.3-192.2 159.3-318.6 0-219.6-178.7-398.3-398.3-398.3S97.8 317.4 97.8 537c0 122.9 59.2 239.9 162.5 321 0.1 0.1 0.3 0.3 0.7 0.6 0.7 0.6 1.8 1.4 2.3 1.9z m-0.6-0.4c0.1 0 0.2 0.1 0.2 0.1 0.1 0 0.1 0.1 0.2 0.1-0.1-0.1-0.3-0.2-0.4-0.2z" fill="#441B00" p-id="45929"></path><path d="M443.8 482l54.4-158.8 52.3 158.9z" fill="#F88E20" p-id="45930"></path><path d="M550.5 494.5l-106.7-0.1c-4 0-7.7-1.9-10.1-5.2-2.3-3.3-2.9-7.4-1.6-11.2l54.4-158.8c1.7-5 6.5-8.4 11.8-8.4 5.3 0 10 3.5 11.7 8.5l52.3 158.9c1.2 3.8 0.6 7.9-1.7 11.1-2.4 3.3-6.1 5.2-10.1 5.2z m-89.4-24.8l72.2 0.1-35.4-107.6-36.8 107.5z" fill="#441B00" p-id="45931"></path><path d="M497.1 501.5m-56.7 0a56.7 56.7 0 1 0 113.4 0 56.7 56.7 0 1 0-113.4 0Z" fill="#FFFFFF" p-id="45932"></path><path d="M497.1 570.6c-38.1 0-69.1-31-69.1-69.1 0-38.1 31-69.1 69.1-69.1 38.1 0 69.1 31 69.1 69.1 0.1 38.1-30.9 69.1-69.1 69.1z m0-113.5c-24.5 0-44.4 19.9-44.4 44.4s19.9 44.4 44.4 44.4 44.4-19.9 44.4-44.4-19.9-44.4-44.4-44.4z" fill="#441B00" p-id="45933"></path><path d="M375.8 678.7h242.6" fill="#FFFFFF" p-id="45934"></path><path d="M618.4 691.1H375.8c-6.8 0-12.4-5.5-12.4-12.4s5.5-12.4 12.4-12.4h242.5c6.8 0 12.4 5.5 12.4 12.4s-5.5 12.4-12.3 12.4z" fill="#441B00" p-id="45935"></path></svg>