<?xml version="1.0" standalone="no"?><!DOCTYPE svg PUBLIC "-//W3C//DTD SVG 1.1//EN" "http://www.w3.org/Graphics/SVG/1.1/DTD/svg11.dtd"><svg t="1586414185957" class="icon" viewBox="0 0 1024 1024" version="1.1" xmlns="http://www.w3.org/2000/svg" p-id="2575" xmlns:xlink="http://www.w3.org/1999/xlink" width="200" height="200"><defs><style type="text/css"></style></defs><path d="M279.04 204.8h28.16c15.36 0 25.6-10.24 25.6-25.6s-10.24-25.6-25.6-25.6h-28.16c-10.24-43.52-51.2-76.8-99.84-76.8-56.32 0-102.4 46.08-102.4 102.4s46.08 102.4 102.4 102.4c48.64 0 87.04-33.28 99.84-76.8z m-151.04-25.6c0-28.16 23.04-51.2 51.2-51.2s51.2 23.04 51.2 51.2-23.04 51.2-51.2 51.2-51.2-23.04-51.2-51.2zM844.8 742.4c-48.64 0-87.04 33.28-99.84 76.8h-28.16c-15.36 0-25.6 10.24-25.6 25.6s10.24 25.6 25.6 25.6h28.16c10.24 43.52 51.2 76.8 99.84 76.8 56.32 0 102.4-46.08 102.4-102.4s-46.08-102.4-102.4-102.4z m0 153.6c-28.16 0-51.2-23.04-51.2-51.2s23.04-51.2 51.2-51.2 51.2 23.04 51.2 51.2-23.04 51.2-51.2 51.2zM409.6 204.8h99.84c15.36 0 25.6-10.24 25.6-25.6s-10.24-25.6-25.6-25.6h-99.84c-15.36 0-25.6 10.24-25.6 25.6s10.24 25.6 25.6 25.6zM760.32 514.56c5.12 0 7.68 0 12.8-2.56 33.28-20.48 61.44-48.64 76.8-84.48 5.12-12.8 0-28.16-12.8-33.28-12.8-5.12-28.16 0-33.28 12.8-12.8 25.6-33.28 46.08-56.32 61.44-12.8 7.68-15.36 23.04-10.24 35.84 7.68 7.68 15.36 10.24 23.04 10.24zM816.64 322.56c2.56 12.8 12.8 20.48 25.6 20.48h5.12c12.8-2.56 23.04-15.36 20.48-28.16-5.12-38.4-23.04-74.24-51.2-102.4-10.24-10.24-25.6-10.24-35.84 0-10.24 10.24-10.24 25.6 0 35.84 17.92 20.48 33.28 46.08 35.84 74.24zM609.28 204.8h69.12c10.24 0 17.92 0 28.16 2.56h5.12c12.8 0 23.04-7.68 25.6-20.48 2.56-12.8-5.12-28.16-20.48-30.72-12.8-2.56-25.6-2.56-38.4-2.56h-69.12c-15.36 0-25.6 10.24-25.6 25.6s12.8 25.6 25.6 25.6zM614.4 819.2h-99.84c-15.36 0-25.6 10.24-25.6 25.6s10.24 25.6 25.6 25.6h99.84c15.36 0 25.6-10.24 25.6-25.6s-12.8-25.6-25.6-25.6zM463.36 486.4h-99.84c-15.36 0-25.6 10.24-25.6 25.6s10.24 25.6 25.6 25.6h99.84c15.36 0 25.6-10.24 25.6-25.6s-12.8-25.6-25.6-25.6zM207.36 698.88c-2.56-12.8-15.36-23.04-28.16-20.48-12.8 2.56-23.04 15.36-20.48 28.16 5.12 38.4 23.04 74.24 51.2 102.4 5.12 5.12 12.8 7.68 17.92 7.68 5.12 0 12.8-2.56 17.92-7.68 10.24-10.24 10.24-25.6 0-35.84-23.04-17.92-35.84-46.08-38.4-74.24zM665.6 486.4h-99.84c-15.36 0-25.6 10.24-25.6 25.6s10.24 25.6 25.6 25.6h99.84c15.36 0 25.6-10.24 25.6-25.6s-12.8-25.6-25.6-25.6zM286.72 519.68c-7.68-12.8-23.04-17.92-35.84-10.24-33.28 20.48-61.44 48.64-79.36 84.48-5.12 12.8 0 28.16 12.8 33.28 2.56 2.56 7.68 2.56 10.24 2.56 10.24 0 17.92-5.12 23.04-15.36 12.8-25.6 33.28-46.08 58.88-61.44 12.8-5.12 17.92-20.48 10.24-33.28zM412.16 819.2h-66.56c-10.24 0-20.48 0-28.16-2.56-12.8-2.56-28.16 5.12-30.72 20.48-2.56 12.8 5.12 28.16 20.48 30.72 12.8 2.56 25.6 5.12 38.4 5.12h66.56c15.36 0 25.6-10.24 25.6-25.6s-10.24-28.16-25.6-28.16z" p-id="2576"></path></svg>