<?xml version="1.0" standalone="no"?><!DOCTYPE svg PUBLIC "-//W3C//DTD SVG 1.1//EN" "http://www.w3.org/Graphics/SVG/1.1/DTD/svg11.dtd"><svg t="1584180665788" class="icon" viewBox="0 0 1024 1024" version="1.1" xmlns="http://www.w3.org/2000/svg" p-id="9595" xmlns:xlink="http://www.w3.org/1999/xlink" width="200" height="200"><defs><style type="text/css"></style></defs><path d="M0 0h96.603774v96.603774H0zM0 115.924528h96.603774v96.603774H0zM0 809.539623h96.603774v96.603773H0zM0 925.464151h96.603774v96.603774H0zM927.396226 0h96.603774v96.603774h-96.603774zM811.471698 0h96.603774v96.603774h-96.603774zM927.396226 925.464151h96.603774v96.603774h-96.603774zM811.471698 925.464151h96.603774v96.603774h-96.603774zM695.54717 115.924528h96.603773v96.603774h-96.603773zM579.622642 231.849057h96.603773v96.603773h-96.603773zM695.54717 231.849057h96.603773v96.603773h-96.603773zM463.698113 347.773585h96.603774v96.603773h-96.603774zM579.622642 347.773585h96.603773v96.603773h-96.603773zM463.698113 463.698113h96.603774v96.603774h-96.603774zM579.622642 463.698113h96.603773v96.603774h-96.603773zM463.698113 579.622642h96.603774v96.603773h-96.603774zM579.622642 579.622642h96.603773v96.603773h-96.603773zM347.773585 695.54717h96.603773v96.603773h-96.603773zM463.698113 695.54717h96.603774v96.603773h-96.603774zM811.471698 115.924528h96.603774v96.603774h-96.603774zM231.849057 927.396226h96.603773v96.603774h-96.603773zM115.924528 927.396226h96.603774v96.603774H115.924528zM347.773585 927.396226h96.603773v96.603774h-96.603773zM463.698113 927.396226h96.603774v96.603774h-96.603774zM579.622642 927.396226h96.603773v96.603774h-96.603773zM695.54717 927.396226h96.603773v96.603774h-96.603773zM231.849057 811.471698h96.603773v96.603774h-96.603773zM115.924528 811.471698h96.603774v96.603774H115.924528zM347.773585 811.471698h96.603773v96.603774h-96.603773zM0 792.150943v-96.603773h96.603774v96.603773zM0 676.226415v-96.603773h96.603774v96.603773zM0 560.301887v-96.603774h96.603774v96.603774zM0 444.377358v-96.603773h96.603774v96.603773zM0 328.45283v-96.603773h96.603774v96.603773zM1024 231.849057h-96.603774" fill="#2c2c2c" p-id="9596" data-spm-anchor-id="a313x.7781069.0.i12" class=""></path></svg>