<?xml version="1.0" standalone="no"?><!DOCTYPE svg PUBLIC "-//W3C//DTD SVG 1.1//EN" "http://www.w3.org/Graphics/SVG/1.1/DTD/svg11.dtd"><svg t="1586590116586" class="icon" viewBox="0 0 1024 1024" version="1.1" xmlns="http://www.w3.org/2000/svg" p-id="1833" xmlns:xlink="http://www.w3.org/1999/xlink" width="200" height="200"><defs><style type="text/css"></style></defs><path d="M937.6 243.3c12.4 0 22.4-10 22.4-22.4V108.8c0-24.7-20.1-44.8-44.8-44.8H108.8C84.1 64 64 84.1 64 108.8v806.4c0 24.7 20.1 44.8 44.8 44.8h806.4c24.7 0 44.8-20.1 44.8-44.8V400.1c0-12.4-10-22.4-22.4-22.4-12.4 0-22.4 10-22.4 22.4v492.7c0 12.4-10 22.4-22.4 22.4H131.2c-12.4 0-22.4-10-22.4-22.4V131.2c0-12.4 10-22.4 22.4-22.4h761.6c12.4 0 22.4 10 22.4 22.4v89.7c0 12.4 10 22.4 22.4 22.4z" fill="#000000" p-id="1834"></path><path d="M288 691.2c-12.3 0-22.4 10.1-22.4 22.4 0 12.3 10.1 22.4 22.4 22.4h448c12.3 0 22.4-10.1 22.4-22.4 0-12.3-10.1-22.4-22.4-22.4H288zM768.1 483.3V310.4c0-2.9-0.6-5.9-1.7-8.6-0.5-1.3-1.5-2.3-2.3-3.5-0.8-1.3-1.4-2.6-2.5-3.7s-2.5-1.6-3.7-2.5c-1.2-0.8-2.2-1.8-3.5-2.3-2.8-1.1-5.7-1.7-8.6-1.7H611.3c-12.3 0-22.4 10.1-22.4 22.4s10.1 22.4 22.4 22.4h80.3L531.8 492.6 420.9 381.7c-4.4-4.4-10.1-6.5-15.9-6.5-5.8 0-11.5 2.2-15.9 6.5L262.5 508.4c-8.7 8.7-8.7 23 0 31.7s23 8.7 31.7 0L405 429.2l111 110.9c4.4 4.4 10.1 6.5 15.8 6.5 5.7 0 11.5-2.2 15.8-6.5l175.6-175.6v118.8c0 12.4 10 22.4 22.4 22.4 12.4 0 22.5-10 22.5-22.4z" fill="#000000" p-id="1835"></path></svg>