<?xml version="1.0" standalone="no"?><!DOCTYPE svg PUBLIC "-//W3C//DTD SVG 1.1//EN" "http://www.w3.org/Graphics/SVG/1.1/DTD/svg11.dtd"><svg t="1586397040352" class="icon" viewBox="0 0 1024 1024" version="1.1" xmlns="http://www.w3.org/2000/svg" p-id="1580" xmlns:xlink="http://www.w3.org/1999/xlink" width="200" height="200"><defs><style type="text/css"></style></defs><path d="M795.689796 932.571429H228.310204c-17.763265 0-34.481633-9.404082-44.408163-25.077551-9.926531-16.195918-10.971429-35.526531-2.612245-51.722449l177.632653-354.742858c5.22449-10.44898 14.106122-18.808163 24.555102-23.510204V114.938776c0-5.746939 2.089796-10.971429 6.269388-14.628572 4.179592-4.179592 9.404082-6.269388 14.628571-6.269388h208.979592c11.493878 0 20.897959 9.404082 20.897959 20.89796l0.522449 360.489795c13.061224 4.179592 24.032653 12.538776 29.779592 25.077551l177.632653 355.787756c8.359184 16.195918 7.314286 35.526531-2.612245 51.2-9.404082 15.673469-25.6 25.077551-43.885714 25.077551z m-389.746939-417.959184c-4.179592 0-7.836735 2.089796-9.404081 5.22449l-177.632654 354.742857c-2.612245 5.22449 0 9.926531 0.522449 11.493877 1.044898 2.089796 3.657143 5.22449 8.359184 5.22449h567.379592c4.702041 0 7.836735-3.134694 8.881633-5.22449 1.044898-1.567347 3.134694-5.746939 0.522449-10.971428l-177.632653-355.787755c-2.089796-3.657143-6.791837-4.702041-9.404082-4.702041h-4.179592c-11.493878 0-20.897959-9.404082-20.897959-20.897959V135.836735h-167.183674l0.522449 351.085714c0.522449 2.089796 1.044898 4.179592 1.044898 6.791837 0 11.493878-9.404082 20.897959-20.897959 20.897959z" p-id="1581"></path><path d="M668.212245 135.836735h-313.469388c-11.493878 0-20.897959-9.404082-20.897959-20.897959s9.404082-20.897959 20.897959-20.89796h313.469388c11.493878 0 20.897959 9.404082 20.897959 20.89796s-9.404082 20.897959-20.897959 20.897959zM693.812245 817.110204c-7.836735 0-15.15102-4.179592-18.808163-11.493877l-94.040817-186.514286c-5.22449-10.44898-1.044898-22.987755 9.404082-28.212245s22.987755-1.044898 28.212245 9.404082l94.040816 186.514285c5.22449 10.44898 1.044898 22.987755-9.404081 28.212245-3.134694 1.044898-6.269388 2.089796-9.404082 2.089796z" p-id="1582"></path></svg>