<?xml version="1.0" standalone="no"?><!DOCTYPE svg PUBLIC "-//W3C//DTD SVG 1.1//EN" "http://www.w3.org/Graphics/SVG/1.1/DTD/svg11.dtd"><svg t="1600694970379" class="icon" viewBox="0 0 1024 1024" version="1.1" xmlns="http://www.w3.org/2000/svg" p-id="2255" xmlns:xlink="http://www.w3.org/1999/xlink" width="200" height="200"><defs><style type="text/css"></style></defs><path d="M501.13705349 164.38571167C315.14168334 164.38571167 164.38571167 315.14168334 164.38571167 501.13705349S315.14168334 837.88839531 501.13705349 837.88839531 837.88839531 687.13242364 837.88839531 501.13705349 687.13242364 164.38571167 501.13705349 164.38571167z m292.75640846 325.88839531h-130.26845457c-1.19492411-48.12285304-9.75492597-94.09484267-24.94132517-136.17789745a354.8707366 354.8707366 0 0 0 81.16793631-47.73178696A291.84392094 291.84392094 0 0 1 793.89346195 490.27410698zM489.12263465 793.82828426c-36.1084342-30.06863594-66.39432908-69.11006571-88.55473996-114.45200443A336.68616414 336.68616414 0 0 1 490.27410698 664.62439847v129.24733758l-1.15147233-0.04345179z m23.98538589-585.38246155c40.97503424 34.10965205 74.41118361 79.79920507 97.02783824 133.09282065-30.98112345 10.5805099-63.89585137 16.72893763-98.15758468 17.81523227V208.38064504l1.12974644 0.06517767z m36.19533778 3.69340182a292.49569774 292.49569774 0 0 1 155.6442976 78.51737738 332.34098554 332.34098554 0 0 1-74.47636128 43.40833425c-19.77056265-46.86275125-47.51452804-88.29402924-81.16793632-121.92571163zM490.27410698 208.38064504v150.9732306a336.57753467 336.57753467 0 0 1-98.15758467-17.81523228c22.61665463-53.29361558 56.052804-98.9831686 97.02783824-133.09282065L490.27410698 208.38064504zM371.78108644 334.08666205a333.16656947 333.16656947 0 0 1-74.45463538-43.40833425 292.43052007 292.43052007 0 0 1 155.6442976-78.51737738c-33.67513418 33.6099565-61.39737368 75.0412345-81.18966221 121.92571163z m12.1447742 27.48325468c33.50132704 11.62335277 69.19696928 18.40183138 106.34824634 19.53157782V490.27410698H360.37499262c1.17319823-45.49401999 9.23350453-88.96753192 23.55086802-128.70419025zM490.27410698 512v130.89850545a356.54363036 356.54363036 0 0 0-98.61382842 16.70721173A408.12090039 408.12090039 0 0 1 360.37499262 512H490.27410698z m-37.30335832 278.13488245a291.80046916 291.80046916 0 0 1-142.19596982-66.3074255 330.21184802 330.21184802 0 0 1 69.26214694-36.93401814 376.22728944 376.22728944 0 0 0 72.93382288 103.24144363z m59.02925134 3.7585795v-129.24733758c31.1114788 0.99939109 61.26701831 5.86599112 89.70621229 14.75188135-22.18213678 45.34193873-52.44630576 84.38336849-88.55473996 114.45200443a21.18274569 21.18274569 0 0 0-1.15147233 0.0434518z m110.23718119-107.00002313a332.84068108 332.84068108 0 0 1 69.26214694 36.93401813 291.99600219 291.99600219 0 0 1-142.19596981 66.3074255 376.68353319 376.68353319 0 0 0 72.93382286-103.24144363z m-11.62335277-27.28772164A356.82606697 356.82606697 0 0 0 512 642.89850545V512h129.89911437a408.57714415 408.57714415 0 0 1-31.28528595 147.60571718zM512 490.27410698V381.10149455a357.17368126 357.17368126 0 0 0 106.34824633-19.50985193c14.29563761 39.73665833 22.35594392 83.21017027 23.55086803 128.70419025H512zM282.44421434 306.36442257a355.21835089 355.21835089 0 0 0 81.14621043 47.73178696C348.40402556 396.17926431 339.84402371 442.15125394 338.64909959 490.27410698H208.38064504a291.75701738 291.75701738 0 0 1 74.0635693-183.90968441zM208.38064504 512h130.26845455a428.52151394 428.52151394 0 0 0 32.6540172 155.05769849 352.61124373 352.61124373 0 0 0-76.86620949 41.95269941A292.49569774 292.49569774 0 0 1 208.38064504 512z m499.45655465 196.98867202a353.17611695 353.17611695 0 0 0-76.8879354-41.95269942 428.54323984 428.54323984 0 0 0 32.67574309-155.0576985h130.26845457a292.51742363 292.51742363 0 0 1-86.05626226 197.01039792z" fill="#2c2c2c" p-id="2256"></path></svg>